<?xml version="1.0" encoding="utf-8"?>
<!-- Generator: Adobe Illustrator 19.0.0, SVG Export Plug-In . SVG Version: 6.00 Build 0)  -->
<svg version="1.1" id="图层_1"
     xmlns="http://www.w3.org/2000/svg"
     xmlns:xlink="http://www.w3.org/1999/xlink" x="0px"
     y="0px"
     width="190.7px"
     height="190.7px"
     viewBox="0 0 190.7 197.3"
     style="enable-background:new 0 0 190.7 197.3;"
     xml:space="preserve"
>
<style type="text/css">
	.st0 {
    fill: #8DC21F;
  }

  .st1 {
    fill: #0084CF;
  }
</style>

  <g>
		<path class="st0" d="M141,58.6c-8.5-11.2-21.2-22.7-24.7-25.5c-2.5-2-4.9-3-7.3-3c-2.4,0-4.7,1-6.8,2.8c-0.4,0.4-1,0.9-1.7,1.5
			c-5,4.2-20.6,18.5-21,18.9c-1.2,1.1-2.7,1.8-4.4,1.8c-1.5-0.1-3.1-0.7-4.8-2.3c-1.2-1.1-6.5-5.2-12.7-12.2c-3.8-4.3-7-8.1-7-8.1
			s-0.7,1.4-1.1,2.5c-0.3,0.8,0,1.4,0.1,1.6c2.1,3,11.6,14.3,24.6,25.6c2.4,2.1,4.9,3,7.3,3c2.4,0,4.7-1,6.8-2.8
			c0.4-0.4,1-0.9,1.7-1.5c5-4.2,14.5-12.9,18.9-17c1-0.9,1.7-1.5,2-1.9c1.2-1.1,2.7-1.8,4.4-1.8c1.5,0.1,3.1,0.8,4.8,2.3
			c2.8,2.4,7.3,6.6,12.7,12.2c3.9,4.2,7,8,7,8.1c0,0,0.7-1.5,1.1-2.5C141.5,59.3,141.2,58.8,141,58.6z"/>
    <g>
			<g>
				<path class="st1" d="M90.7,17.3c-4.4,3.2-22.4,19.9-25.9,23.9c0,0,2.5,2.8,6.3,5.9c1,0.8,2.2,0.7,3.2-0.4c6.9-7,21.1-19.5,23-21
					c5.3-4.5,11.6-4.9,17.2-0.7c13.8,10.4,26.1,26.7,28.2,29.7c0,0,0.3-1.5,0.5-2.8c0-0.1,0.3-1.3-0.4-2.3
					c-13-18.7-26.8-30.3-32.1-33.2C104.6,13.3,97.6,12.2,90.7,17.3z"/>
        <path class="st1" d="M76.1,7.6c-8.9,7.2-20.4,17.8-23.3,21c0,0,2.2,2.7,5.6,6c0.7,0.6,1.4,0.4,1.9-0.2
					c8.8-8.5,18.3-17.2,23.9-21.5c9.3-7.2,20.3-7.9,31,0.6c4,3.2,7.5,6.3,12.7,11.6c6.6,7.2,10.9,13.2,15.6,19.9c0,0,0-1.8-0.5-4.2
					c-0.1-0.4-0.3-1.1-0.6-1.6c-0.9-1.9-5.1-9-11.1-16.1c-12-14-19.5-18.2-24.4-20.8C100.4-1,87.9-2,76.1,7.6z"/>
			</g>
      <g>
				<path class="st1" d="M100.1,77.8c4.4-3.2,22.4-19.9,25.9-23.9c0,0-2.5-2.8-6.3-6c-1-0.8-2.2-0.7-3.2,0.4c-6.9,7-21.1,19.5-23,21
					c-5.3,4.5-11.6,4.9-17.3,0.7C62.4,59.6,50.1,43.3,48,40.2c0,0-0.3,1.5-0.5,2.8c0,0.1-0.3,1.3,0.4,2.3
					c13,18.7,26.8,30.3,32.1,33.2C86.1,81.8,93.1,82.9,100.1,77.8z"/>
        <path class="st1" d="M114.7,87.5c8.9-7.2,20.4-17.8,23.3-21c0,0-2.2-2.7-5.6-6c-0.7-0.6-1.4-0.4-1.9,0.2
					c-8.8,8.5-18.3,17.2-23.9,21.5c-9.3,7.2-20.3,7.9-31-0.6c-4-3.2-7.5-6.3-12.7-11.6C56.3,62.8,52,56.8,47.3,50c0,0,0,1.7,0.5,4.2
					c0.1,0.4,0.3,1.1,0.6,1.6c1,1.9,5.1,9,11.1,16.1c12,14,19.5,18.2,24.4,20.8C90.4,96.1,102.9,97.1,114.7,87.5z"/>
			</g>
		</g>
	</g>
</svg>
